<svg xmlns="http://www.w3.org/2000/svg" width="424" height="163" viewBox="0 0 424 163" fill="none">
    <path
        d="M192.246 136.071H175.961L141.833 41.3385H156.971L184.049 120.415L211.237 41.3385H226.374L192.246 136.071Z"
        fill="black" />
    <path
        d="M264.86 137.438C258.084 137.438 252.079 135.907 246.853 132.847C241.641 129.787 237.563 125.524 234.612 120.059C231.675 114.595 230.213 108.303 230.213 101.178C230.213 94.2244 231.675 88.0765 234.612 82.7346C237.563 77.3996 241.641 73.1985 246.853 70.1382C252.079 67.0779 258.084 65.5477 264.86 65.5477C271.65 65.5477 277.654 67.0779 282.867 70.1382C288.072 73.1985 292.143 77.3996 295.08 82.7346C298.031 88.0765 299.507 94.2244 299.507 101.178C299.507 108.214 298.059 114.458 295.162 119.923C292.266 125.388 288.202 129.677 282.976 132.792C277.764 135.894 271.725 137.438 264.86 137.438ZM264.86 125.524C268.918 125.524 272.497 124.472 275.598 122.355C278.713 120.244 281.152 117.368 282.921 113.72C284.704 110.079 285.599 105.899 285.599 101.178C285.599 96.6289 284.704 92.5713 282.921 89.0192C281.152 85.4534 278.713 82.639 275.598 80.576C272.497 78.4994 268.918 77.461 264.86 77.461C260.884 77.461 257.325 78.4857 254.176 80.5213C251.041 82.5433 248.582 85.3441 246.799 88.9099C245.009 92.462 244.121 96.5538 244.121 101.178C244.121 105.987 245.029 110.216 246.853 113.857C248.67 117.505 251.13 120.36 254.231 122.437C257.346 124.5 260.884 125.524 264.86 125.524Z"
        fill="black" />
    <path
        d="M334.883 136.071H326.686C321.549 136.071 317.546 134.896 314.69 132.547C311.849 130.183 310.428 125.934 310.428 119.813V41.3385H324.09V116.453C324.09 119.185 324.513 121.221 325.374 122.546C326.248 123.857 328.134 124.513 331.03 124.513H334.883V136.071Z"
        fill="black" />
    <path
        d="M377.596 136.071H365.928C360.791 136.071 356.788 134.896 353.933 132.547C351.071 130.183 349.643 125.934 349.643 119.813V78.3354H338.987V66.9139H349.643V41.3385H363.305V66.9139H377.705V78.3354H363.305V116.207C363.305 118.611 363.647 120.599 364.343 122.163C365.054 123.734 367.028 124.513 370.273 124.513H377.596V136.071Z"
        fill="black" />
    <path
        d="M401.431 136.071H387.769V66.9139H401.431V75.7396C404.327 72.0099 407.483 69.3731 410.912 67.8429C414.355 66.3128 418.221 65.5477 422.525 65.5477H423.891V78.9639H420.175C414.615 78.9639 410.311 80.494 407.251 83.5543C405.352 85.3782 403.903 87.7827 402.906 90.7679C401.922 93.7394 401.431 97.4555 401.431 101.916V136.071Z"
        fill="black" />
    <mask id="mask0_1_251" style="mask-type:luminance" maskUnits="userSpaceOnUse" x="90" y="0"
        width="29" height="163">
        <path d="M90.4427 0H118.786V162.047H90.4427V0Z" fill="white" />
    </mask>
    <g mask="url(#mask0_1_251)">
        <path
            d="M35.2239 161.854C33.8906 161.849 32.6979 161.437 31.6458 160.62C31.0833 160.203 30.6093 159.698 30.2291 159.109C29.8489 158.516 29.5885 157.88 29.4374 157.193C29.2916 156.505 29.2708 155.818 29.3749 155.125C29.4791 154.432 29.7031 153.776 30.0416 153.161L30.0729 153.115L65.1718 90.9635H31.7031C31.1302 90.9635 30.5624 90.8802 30.0104 90.7135C29.4635 90.5469 28.9427 90.3021 28.4635 89.9844C27.9843 89.6667 27.5624 89.2812 27.1927 88.8385C26.8281 88.3958 26.5312 87.9062 26.3072 87.375C26.0833 86.8437 25.9374 86.2917 25.8749 85.7187C25.8177 85.1458 25.8385 84.5781 25.9427 84.0104C26.052 83.4427 26.2343 82.9062 26.4999 82.3958C26.7656 81.8802 27.0989 81.4167 27.4999 81.0052L98.802 2.42707L98.901 2.31769C99.3854 1.83332 99.9375 1.4479 100.557 1.15624C101.177 0.869779 101.828 0.692695 102.51 0.630195C103.193 0.562487 103.865 0.619779 104.526 0.791653C105.187 0.963528 105.802 1.23957 106.365 1.63019C106.932 2.01561 107.411 2.48436 107.812 3.04165C108.213 3.59374 108.505 4.1979 108.698 4.85936C108.885 5.51561 108.953 6.18749 108.911 6.86978C108.865 7.55207 108.703 8.20311 108.427 8.83332L108.385 8.92186L80.6614 66.901H110.109C110.922 66.9062 111.713 67.0208 112.495 67.2552C113.271 67.4896 113.995 67.8333 114.672 68.2812C115.349 68.7292 115.948 69.2656 116.463 69.8906C116.984 70.5104 117.401 71.1979 117.719 71.9479C118.031 72.6927 118.234 73.4687 118.323 74.276C118.411 75.0833 118.38 75.8854 118.234 76.6823C118.083 77.4792 117.823 78.2396 117.453 78.9583C117.083 79.6823 116.615 80.3333 116.047 80.9167L39.3437 160.099L39.2552 160.187C38.1354 161.286 36.7916 161.844 35.2239 161.854ZM32.1093 84.9114H65.4739C65.7291 84.9114 65.9791 84.9271 66.2291 84.9583C66.4843 84.9948 66.7291 85.0417 66.9739 85.1094C67.2187 85.1719 67.4583 85.25 67.6927 85.3489C67.927 85.4427 68.1562 85.5521 68.3749 85.6771C68.5937 85.8021 68.8072 85.9427 69.0052 86.0937C69.2083 86.2448 69.401 86.4115 69.5833 86.5885C69.7604 86.7656 69.9322 86.9531 70.0885 87.151C70.2447 87.349 70.3854 87.5573 70.5156 87.776C70.6458 87.9948 70.7604 88.2187 70.8593 88.4479C70.9635 88.6823 71.0468 88.9219 71.1145 89.1615C71.1874 89.4062 71.2395 89.651 71.276 89.901C71.3177 90.151 71.3385 90.4062 71.3437 90.6562C71.3489 90.9115 71.3385 91.1615 71.3125 91.4167C71.2812 91.6667 71.2395 91.9167 71.1822 92.1615C71.1197 92.4062 71.0468 92.6458 70.9583 92.8854C70.8645 93.1198 70.7604 93.349 70.6406 93.5729L70.6093 93.6198L36.0468 154.828L111.698 76.7135C112.01 76.3958 112.203 76.0156 112.286 75.5781C112.37 75.1354 112.323 74.7135 112.151 74.3021C111.974 73.8906 111.703 73.5625 111.328 73.3177C110.958 73.0729 110.552 72.9479 110.104 72.9479H80.3802C79.8906 72.9479 79.4114 72.8906 78.9375 72.7708C78.4635 72.651 78.0156 72.4739 77.5833 72.2448C77.1562 72.0104 76.7604 71.7292 76.401 71.401C76.0416 71.0677 75.7291 70.6979 75.4635 70.2917C75.1979 69.8802 74.9843 69.4479 74.8281 68.9844C74.6666 68.526 74.5677 68.0521 74.526 67.5625C74.4895 67.0781 74.5052 66.5937 74.5885 66.1146C74.6666 65.6302 74.8072 65.1667 75 64.7187L75.0416 64.6302L102.37 7.49478L32.1093 84.9114Z"
            fill="#74B8FF" />
    </g>
    <mask id="mask1_1_251" style="mask-type:luminance" maskUnits="userSpaceOnUse" x="25" y="141"
        width="94" height="21">
        <path d="M25.3594 141.896H118.74V161.672H25.3594V141.896Z" fill="white" />
    </mask>
    <g mask="url(#mask1_1_251)">
        <path
            d="M35.1771 161.854C33.8438 161.849 32.651 161.437 31.599 160.62C31.0365 160.203 30.5625 159.698 30.1823 159.109C29.8021 158.516 29.5417 157.88 29.3906 157.193C29.2448 156.505 29.224 155.818 29.3281 155.125C29.4323 154.427 29.6563 153.776 30 153.161L30.0261 153.115L65.125 90.9635H31.6563C31.0833 90.9635 30.5156 90.8802 29.9688 90.7135C29.4167 90.5469 28.901 90.3021 28.4167 89.9844C27.9375 89.6667 27.5156 89.2812 27.1458 88.8385C26.7813 88.3958 26.4844 87.9062 26.2604 87.375C26.0365 86.8437 25.8906 86.2917 25.8281 85.7187C25.7708 85.1458 25.7917 84.5781 25.8958 84.0104C26.0052 83.4427 26.1875 82.9062 26.4531 82.3958C26.7188 81.8802 27.0521 81.4167 27.4531 81.0052L98.7552 2.42707L98.8542 2.31769C99.3386 1.83332 99.8906 1.4479 100.51 1.15624C101.13 0.869779 101.781 0.692695 102.464 0.630195C103.146 0.562487 103.818 0.619779 104.479 0.791653C105.141 0.963528 105.755 1.23957 106.318 1.63019C106.885 2.01561 107.365 2.48436 107.766 3.04165C108.167 3.59374 108.458 4.1979 108.651 4.85936C108.839 5.51561 108.911 6.18749 108.865 6.86978C108.818 7.55207 108.656 8.20311 108.38 8.83332L108.339 8.92186L80.6146 66.901H110.063C110.875 66.9062 111.672 67.0208 112.448 67.2552C113.224 67.4896 113.948 67.8333 114.625 68.2812C115.302 68.7292 115.901 69.2656 116.417 69.8906C116.938 70.5104 117.354 71.1979 117.672 71.9479C117.984 72.6927 118.188 73.4687 118.276 74.276C118.365 75.0833 118.333 75.8854 118.188 76.6823C118.036 77.4792 117.776 78.2396 117.406 78.9583C117.036 79.6823 116.568 80.3333 116.005 80.9167L39.2969 160.099L39.2083 160.187C38.0886 161.286 36.7448 161.839 35.1771 161.854ZM32.0625 84.9114H65.4271C65.6823 84.9114 65.9323 84.9271 66.1823 84.9583C66.4375 84.9948 66.6823 85.0417 66.9271 85.1042C67.1719 85.1719 67.4115 85.25 67.6458 85.3489C67.8802 85.4427 68.1094 85.5521 68.3281 85.6771C68.5469 85.8021 68.7604 85.9427 68.9583 86.0937C69.1615 86.2448 69.3542 86.4115 69.5365 86.5885C69.7136 86.7656 69.8854 86.9531 70.0417 87.151C70.1979 87.349 70.3386 87.5573 70.4688 87.776C70.599 87.9948 70.7136 88.2187 70.8125 88.4479C70.9167 88.6823 71 88.9219 71.0677 89.1615C71.1406 89.4062 71.1927 89.651 71.2292 89.901C71.2708 90.151 71.2917 90.4062 71.2969 90.6562C71.3021 90.9115 71.2917 91.1615 71.2656 91.4167C71.2344 91.6667 71.1927 91.9167 71.1354 92.1615C71.0729 92.4062 71 92.6458 70.9115 92.8854C70.8177 93.1198 70.7136 93.349 70.5938 93.5729L70.5677 93.6198L36 154.828L111.651 76.7135C111.964 76.3958 112.156 76.0156 112.24 75.5781C112.323 75.1354 112.276 74.7135 112.104 74.3021C111.927 73.8906 111.656 73.5625 111.281 73.3177C110.911 73.0729 110.505 72.9479 110.057 72.9479H80.3333C79.8438 72.9479 79.3646 72.8906 78.8906 72.7708C78.4167 72.651 77.9688 72.4739 77.5365 72.2448C77.1094 72.0104 76.7136 71.7292 76.3542 71.401C75.9948 71.0677 75.6823 70.6979 75.4167 70.2917C75.1511 69.8802 74.9375 69.4479 74.7813 68.9844C74.6198 68.526 74.5208 68.0521 74.4792 67.5625C74.4427 67.0781 74.4583 66.5937 74.5417 66.1146C74.6198 65.6302 74.7604 65.1667 74.9531 64.7187L74.9948 64.6302L102.323 7.49478L32.0625 84.9114Z"
            fill="#74B8FF" />
    </g>
    <mask id="mask2_1_251" style="mask-type:luminance" maskUnits="userSpaceOnUse" x="71" y="43"
        width="48" height="32">
        <path d="M71.5573 43.5573H118.786V74.8698H71.5573V43.5573Z" fill="white" />
    </mask>
    <g mask="url(#mask2_1_251)">
        <path
            d="M35.224 161.854C33.8906 161.849 32.6979 161.437 31.6458 160.62C31.0833 160.203 30.6094 159.698 30.2292 159.109C29.849 158.516 29.5885 157.88 29.4375 157.193C29.2917 156.505 29.2708 155.818 29.375 155.125C29.4792 154.432 29.7031 153.776 30.0417 153.161L30.0729 153.115L65.1719 90.9635H31.7031C31.1302 90.9635 30.5625 90.8802 30.0104 90.7135C29.4636 90.5469 28.9427 90.3021 28.4636 89.9844C27.9844 89.6667 27.5625 89.2812 27.1927 88.8385C26.8281 88.3958 26.5313 87.9062 26.3073 87.375C26.0833 86.8437 25.9375 86.2917 25.875 85.7187C25.8177 85.1458 25.8386 84.5781 25.9427 84.0104C26.0521 83.4427 26.2344 82.9062 26.5 82.3958C26.7656 81.8802 27.099 81.4167 27.5 81.0052L98.8021 2.42707L98.9011 2.31769C99.3854 1.83332 99.9375 1.4479 100.557 1.15624C101.177 0.869779 101.828 0.692695 102.51 0.630195C103.193 0.562487 103.865 0.619779 104.526 0.791653C105.188 0.963528 105.802 1.23957 106.365 1.63019C106.932 2.01561 107.411 2.48436 107.813 3.04165C108.214 3.59374 108.505 4.1979 108.698 4.85936C108.885 5.51561 108.953 6.18749 108.911 6.86978C108.865 7.55207 108.703 8.20311 108.427 8.83332L108.385 8.92186L80.6615 66.901H110.109C110.922 66.9062 111.719 67.0208 112.495 67.2552C113.271 67.4896 113.995 67.8333 114.672 68.2812C115.349 68.7292 115.948 69.2656 116.464 69.8906C116.984 70.5104 117.401 71.1979 117.719 71.9479C118.031 72.6927 118.234 73.4687 118.323 74.276C118.411 75.0833 118.38 75.8854 118.234 76.6823C118.083 77.4792 117.823 78.2396 117.453 78.9583C117.083 79.6823 116.615 80.3333 116.047 80.9167L39.3438 160.099L39.2552 160.187C38.1354 161.286 36.7917 161.844 35.224 161.854ZM32.1094 84.9114H65.474C65.7292 84.9114 65.9792 84.9271 66.2292 84.9583C66.4844 84.9948 66.7292 85.0417 66.974 85.1094C67.2188 85.1719 67.4583 85.25 67.6927 85.3489C67.9271 85.4427 68.1563 85.5521 68.375 85.6771C68.5938 85.8021 68.8073 85.9427 69.0052 86.0937C69.2083 86.2448 69.4011 86.4115 69.5833 86.5885C69.7604 86.7656 69.9323 86.9531 70.0886 87.151C70.2448 87.349 70.3854 87.5573 70.5156 87.776C70.6458 87.9948 70.7604 88.2187 70.8594 88.4479C70.9636 88.6823 71.0469 88.9219 71.1146 89.1615C71.1875 89.4062 71.2396 89.651 71.2761 89.901C71.3177 90.151 71.3386 90.4062 71.3438 90.6562C71.349 90.9115 71.3386 91.1615 71.3125 91.4167C71.2813 91.6667 71.2396 91.9167 71.1823 92.1615C71.1198 92.4062 71.0469 92.6458 70.9583 92.8854C70.8646 93.1198 70.7604 93.349 70.6406 93.5729L70.6094 93.6198L36.0469 154.828L111.698 76.7135C112.01 76.3958 112.203 76.0156 112.286 75.5781C112.37 75.1354 112.323 74.7135 112.151 74.3021C111.974 73.8906 111.703 73.5625 111.328 73.3177C110.958 73.0729 110.552 72.9479 110.104 72.9479H80.3802C79.8906 72.9479 79.4115 72.8906 78.9375 72.7708C78.4636 72.651 78.0156 72.4739 77.5833 72.2448C77.1563 72.0104 76.7604 71.7292 76.4011 71.401C76.0417 71.0677 75.7292 70.6979 75.4636 70.2917C75.1979 69.8802 74.9844 69.4479 74.8281 68.9844C74.6667 68.526 74.5677 68.0521 74.5261 67.5625C74.4896 67.0781 74.5052 66.5937 74.5886 66.1146C74.6667 65.6302 74.8073 65.1667 75 64.7187L75.0417 64.6302L102.37 7.49478L32.1094 84.9114Z"
            fill="#74B8FF" />
    </g>
    <mask id="mask3_1_251" style="mask-type:luminance" maskUnits="userSpaceOnUse" x="85" y="29"
        width="34" height="46">
        <path d="M85.1302 29.2083H118.786V74.7969H85.1302V29.2083Z" fill="white" />
    </mask>
    <g mask="url(#mask3_1_251)">
        <path
            d="M35.2239 161.854C33.8906 161.849 32.6979 161.437 31.6458 160.62C31.0833 160.203 30.6093 159.698 30.2291 159.109C29.8489 158.516 29.5885 157.88 29.4374 157.193C29.2916 156.505 29.2708 155.818 29.3749 155.125C29.4791 154.432 29.7031 153.776 30.0416 153.161L30.0729 153.115L65.1718 90.9635H31.7031C31.1302 90.9635 30.5624 90.8802 30.0104 90.7135C29.4635 90.5469 28.9427 90.3021 28.4635 89.9844C27.9843 89.6667 27.5624 89.2812 27.1927 88.8385C26.8281 88.3958 26.5312 87.9062 26.3072 87.375C26.0833 86.8437 25.9374 86.2917 25.8749 85.7187C25.8177 85.1458 25.8385 84.5781 25.9427 84.0104C26.052 83.4427 26.2343 82.9062 26.4999 82.3958C26.7656 81.8802 27.0989 81.4167 27.4999 81.0052L98.802 2.42707L98.901 2.31769C99.3854 1.83332 99.9375 1.4479 100.557 1.15624C101.177 0.869779 101.828 0.692695 102.51 0.630195C103.193 0.562487 103.865 0.619779 104.526 0.791653C105.187 0.963528 105.802 1.23957 106.365 1.63019C106.932 2.01561 107.411 2.48436 107.812 3.04165C108.213 3.59374 108.505 4.1979 108.698 4.85936C108.885 5.51561 108.953 6.18749 108.911 6.86978C108.865 7.55207 108.703 8.20311 108.427 8.83332L108.385 8.92186L80.6614 66.901H110.109C110.922 66.9062 111.713 67.0208 112.495 67.2552C113.271 67.4896 113.995 67.8333 114.672 68.2812C115.349 68.7292 115.948 69.2656 116.463 69.8906C116.984 70.5104 117.401 71.1979 117.719 71.9479C118.031 72.6927 118.234 73.4687 118.323 74.276C118.411 75.0833 118.38 75.8854 118.234 76.6823C118.083 77.4792 117.823 78.2396 117.453 78.9583C117.083 79.6823 116.615 80.3333 116.047 80.9167L39.3437 160.099L39.2552 160.187C38.1354 161.286 36.7916 161.844 35.2239 161.854ZM32.1093 84.9114H65.4739C65.7291 84.9114 65.9791 84.9271 66.2291 84.9583C66.4843 84.9948 66.7291 85.0417 66.9739 85.1094C67.2187 85.1719 67.4583 85.25 67.6927 85.3489C67.927 85.4427 68.1562 85.5521 68.3749 85.6771C68.5937 85.8021 68.8072 85.9427 69.0052 86.0937C69.2083 86.2448 69.401 86.4115 69.5833 86.5885C69.7604 86.7656 69.9322 86.9531 70.0885 87.151C70.2447 87.349 70.3854 87.5573 70.5156 87.776C70.6458 87.9948 70.7604 88.2187 70.8593 88.4479C70.9635 88.6823 71.0468 88.9219 71.1145 89.1615C71.1874 89.4062 71.2395 89.651 71.276 89.901C71.3177 90.151 71.3385 90.4062 71.3437 90.6562C71.3489 90.9115 71.3385 91.1615 71.3125 91.4167C71.2812 91.6667 71.2395 91.9167 71.1822 92.1615C71.1197 92.4062 71.0468 92.6458 70.9583 92.8854C70.8645 93.1198 70.7604 93.349 70.6406 93.5729L70.6093 93.6198L36.0468 154.828L111.698 76.7135C112.01 76.3958 112.203 76.0156 112.286 75.5781C112.37 75.1354 112.323 74.7135 112.151 74.3021C111.974 73.8906 111.703 73.5625 111.328 73.3177C110.958 73.0729 110.552 72.9479 110.104 72.9479H80.3802C79.8906 72.9479 79.4114 72.8906 78.9375 72.7708C78.4635 72.651 78.0156 72.4739 77.5833 72.2448C77.1562 72.0104 76.7604 71.7292 76.401 71.401C76.0416 71.0677 75.7291 70.6979 75.4635 70.2917C75.1979 69.8802 74.9843 69.4479 74.8281 68.9844C74.6666 68.526 74.5677 68.0521 74.526 67.5625C74.4895 67.0781 74.5052 66.5937 74.5885 66.1146C74.6666 65.6302 74.8072 65.1667 75 64.7187L75.0416 64.6302L102.37 7.49478L32.1093 84.9114Z"
            fill="#74B8FF" />
    </g>
    <mask id="mask4_1_251" style="mask-type:luminance" maskUnits="userSpaceOnUse" x="47" y="137"
        width="59" height="17">
        <path d="M47.0468 137.391H105.823V153.87H47.0468V137.391Z" fill="white" />
    </mask>
    <g mask="url(#mask4_1_251)">
        <path
            d="M35.9479 161.068C34.6146 161.063 33.4218 160.651 32.3698 159.833C31.8073 159.417 31.3333 158.911 30.9531 158.323C30.5729 157.729 30.3073 157.094 30.1614 156.406C30.0156 155.719 29.9948 155.031 30.0989 154.339C30.2031 153.641 30.4271 152.99 30.7656 152.375L30.7968 152.328L65.8958 90.1771H32.4271C31.8541 90.1771 31.2864 90.0938 30.7343 89.9271C30.1823 89.7604 29.6666 89.5156 29.1875 89.1979C28.7083 88.8802 28.2864 88.4948 27.9166 88.0521C27.5468 87.6094 27.2552 87.1198 27.0312 86.5886C26.8073 86.0573 26.6614 85.5052 26.5989 84.9323C26.5364 84.3594 26.5625 83.7917 26.6666 83.224C26.776 82.6563 26.9583 82.1198 27.2239 81.6042C27.4896 81.0938 27.8229 80.6302 28.2239 80.2188L99.526 1.64063L99.625 1.53126C100.109 1.04688 100.661 0.661465 101.281 0.369799C101.901 0.0833399 102.552 -0.0937431 103.234 -0.156243C103.911 -0.223951 104.583 -0.166659 105.25 0.00521521C105.911 0.17709 106.526 0.453133 107.089 0.838549C107.651 1.22917 108.135 1.69792 108.536 2.25001C108.937 2.8073 109.229 3.41147 109.417 4.07292C109.609 4.72917 109.677 5.40105 109.635 6.08334C109.589 6.76563 109.427 7.41667 109.151 8.04688L109.109 8.13542L81.3854 66.1146H110.833C111.646 66.1146 112.437 66.2344 113.219 66.4688C113.995 66.7031 114.719 67.0469 115.396 67.4948C116.073 67.9427 116.672 68.4792 117.187 69.1042C117.708 69.724 118.125 70.4115 118.437 71.1563C118.755 71.9063 118.958 72.6823 119.047 73.4896C119.135 74.2969 119.104 75.099 118.958 75.8958C118.807 76.6927 118.547 77.4531 118.177 78.1719C117.802 78.8958 117.339 79.5469 116.771 80.1302L40.0677 159.313L39.9791 159.396C38.8593 160.495 37.5156 161.052 35.9479 161.068ZM32.8333 84.125H66.1979C66.4531 84.125 66.7031 84.1406 66.9531 84.1719C67.2031 84.2083 67.4531 84.2552 67.6979 84.3177C67.9427 84.3854 68.1823 84.4635 68.4166 84.5625C68.651 84.6563 68.875 84.7656 69.0989 84.8906C69.3177 85.0156 69.526 85.1563 69.7291 85.3073C69.9323 85.4583 70.125 85.625 70.3021 85.8021C70.4843 85.9792 70.6562 86.1667 70.8125 86.3646C70.9687 86.5625 71.1093 86.7708 71.2396 86.9896C71.3698 87.2083 71.4843 87.4323 71.5833 87.6615C71.6823 87.8958 71.7708 88.1354 71.8385 88.375C71.9114 88.6198 71.9635 88.8646 72 89.1146C72.0416 89.3646 72.0625 89.6198 72.0677 89.8698C72.0729 90.125 72.0625 90.375 72.0312 90.625C72.0052 90.8802 71.9635 91.1302 71.9062 91.375C71.8437 91.6198 71.7708 91.8594 71.6771 92.099C71.5885 92.3333 71.4843 92.5625 71.3646 92.7865L71.3333 92.8333L36.7708 154.042L112.422 75.9271C112.734 75.6042 112.927 75.2292 113.01 74.7917C113.094 74.349 113.047 73.9271 112.87 73.5156C112.698 73.1042 112.427 72.776 112.052 72.5313C111.682 72.2865 111.271 72.1615 110.828 72.1615H81.1041C80.6146 72.1615 80.1354 72.1042 79.6614 71.9844C79.1875 71.8646 78.7396 71.6875 78.3073 71.4583C77.8802 71.224 77.4843 70.9427 77.125 70.6094C76.7656 70.2813 76.4531 69.9115 76.1875 69.5052C75.9218 69.0938 75.7083 68.6615 75.5468 68.1979C75.3906 67.7396 75.2916 67.2656 75.25 66.776C75.2083 66.2917 75.2291 65.8073 75.3125 65.3281C75.3906 64.8438 75.5312 64.3802 75.7239 63.9323L75.7656 63.8438L103.094 6.70834L32.8333 84.125Z"
            fill="#74B8FF" />
    </g>
    <mask id="mask5_1_251" style="mask-type:luminance" maskUnits="userSpaceOnUse" x="69" y="98"
        width="50" height="65">
        <path d="M69.7136 98.3073H118.786V162.031H69.7136V98.3073Z" fill="white" />
    </mask>
    <g mask="url(#mask5_1_251)">
        <path
            d="M35.224 161.854C33.8906 161.849 32.6979 161.437 31.6458 160.62C31.0833 160.203 30.6094 159.698 30.2292 159.109C29.849 158.516 29.5885 157.88 29.4375 157.193C29.2917 156.505 29.2708 155.818 29.375 155.125C29.4792 154.432 29.7031 153.776 30.0417 153.161L30.0729 153.115L65.1719 90.9635H31.7031C31.1302 90.9635 30.5625 90.8802 30.0104 90.7135C29.4636 90.5469 28.9427 90.3021 28.4636 89.9844C27.9844 89.6667 27.5625 89.2812 27.1927 88.8385C26.8281 88.3958 26.5313 87.9062 26.3073 87.375C26.0833 86.8437 25.9375 86.2917 25.875 85.7187C25.8177 85.1458 25.8386 84.5781 25.9427 84.0104C26.0521 83.4427 26.2344 82.9062 26.5 82.3958C26.7656 81.8802 27.099 81.4167 27.5 81.0052L98.8021 2.42707L98.9011 2.31769C99.3854 1.83332 99.9375 1.4479 100.557 1.15624C101.177 0.869779 101.828 0.692695 102.51 0.630195C103.193 0.562487 103.865 0.619779 104.526 0.791653C105.188 0.963528 105.802 1.23957 106.365 1.63019C106.932 2.01561 107.411 2.48436 107.813 3.04165C108.214 3.59374 108.505 4.1979 108.698 4.85936C108.885 5.51561 108.953 6.18749 108.911 6.86978C108.865 7.55207 108.703 8.20311 108.427 8.83332L108.385 8.92186L80.6615 66.901H110.109C110.922 66.9062 111.719 67.0208 112.495 67.2552C113.271 67.4896 113.995 67.8333 114.672 68.2812C115.349 68.7292 115.948 69.2656 116.464 69.8906C116.984 70.5104 117.401 71.1979 117.719 71.9479C118.031 72.6927 118.234 73.4687 118.323 74.276C118.411 75.0833 118.38 75.8854 118.234 76.6823C118.083 77.4792 117.823 78.2396 117.453 78.9583C117.083 79.6823 116.615 80.3333 116.047 80.9167L39.3438 160.099L39.2552 160.187C38.1354 161.286 36.7917 161.844 35.224 161.854ZM32.1094 84.9114H65.474C65.7292 84.9114 65.9792 84.9271 66.2292 84.9583C66.4844 84.9948 66.7292 85.0417 66.974 85.1094C67.2188 85.1719 67.4583 85.25 67.6927 85.3489C67.9271 85.4427 68.1563 85.5521 68.375 85.6771C68.5938 85.8021 68.8073 85.9427 69.0052 86.0937C69.2083 86.2448 69.4011 86.4115 69.5833 86.5885C69.7604 86.7656 69.9323 86.9531 70.0886 87.151C70.2448 87.349 70.3854 87.5573 70.5156 87.776C70.6458 87.9948 70.7604 88.2187 70.8594 88.4479C70.9636 88.6823 71.0469 88.9219 71.1146 89.1615C71.1875 89.4062 71.2396 89.651 71.2761 89.901C71.3177 90.151 71.3386 90.4062 71.3438 90.6562C71.349 90.9115 71.3386 91.1615 71.3125 91.4167C71.2813 91.6667 71.2396 91.9167 71.1823 92.1615C71.1198 92.4062 71.0469 92.6458 70.9583 92.8854C70.8646 93.1198 70.7604 93.349 70.6406 93.5729L70.6094 93.6198L36.0469 154.828L111.698 76.7135C112.01 76.3958 112.203 76.0156 112.286 75.5781C112.37 75.1354 112.323 74.7135 112.151 74.3021C111.974 73.8906 111.703 73.5625 111.328 73.3177C110.958 73.0729 110.552 72.9479 110.104 72.9479H80.3802C79.8906 72.9479 79.4115 72.8906 78.9375 72.7708C78.4636 72.651 78.0156 72.4739 77.5833 72.2448C77.1563 72.0104 76.7604 71.7292 76.4011 71.401C76.0417 71.0677 75.7292 70.6979 75.4636 70.2917C75.1979 69.8802 74.9844 69.4479 74.8281 68.9844C74.6667 68.526 74.5677 68.0521 74.5261 67.5625C74.4896 67.0781 74.5052 66.5937 74.5886 66.1146C74.6667 65.6302 74.8073 65.1667 75 64.7187L75.0417 64.6302L102.37 7.49478L32.1094 84.9114Z"
            fill="#74B8FF" />
    </g>
    <mask id="mask6_1_251" style="mask-type:luminance" maskUnits="userSpaceOnUse" x="51" y="132"
        width="68" height="30">
        <path d="M51.6406 132.859H118.786V161.974H51.6406V132.859Z" fill="white" />
    </mask>
    <g mask="url(#mask6_1_251)">
        <path
            d="M35.2239 161.854C33.8906 161.849 32.6979 161.437 31.6458 160.62C31.0833 160.203 30.6093 159.698 30.2291 159.109C29.8489 158.516 29.5885 157.88 29.4374 157.193C29.2916 156.505 29.2708 155.818 29.3749 155.125C29.4791 154.432 29.7031 153.776 30.0416 153.161L30.0729 153.115L65.1718 90.9635H31.7031C31.1302 90.9635 30.5624 90.8802 30.0104 90.7135C29.4635 90.5469 28.9427 90.3021 28.4635 89.9844C27.9843 89.6667 27.5624 89.2812 27.1927 88.8385C26.8281 88.3958 26.5312 87.9062 26.3072 87.375C26.0833 86.8437 25.9374 86.2917 25.8749 85.7187C25.8177 85.1458 25.8385 84.5781 25.9427 84.0104C26.052 83.4427 26.2343 82.9062 26.4999 82.3958C26.7656 81.8802 27.0989 81.4167 27.4999 81.0052L98.802 2.42707L98.901 2.31769C99.3854 1.83332 99.9375 1.4479 100.557 1.15624C101.177 0.869779 101.828 0.692695 102.51 0.630195C103.193 0.562487 103.865 0.619779 104.526 0.791653C105.187 0.963528 105.802 1.23957 106.365 1.63019C106.932 2.01561 107.411 2.48436 107.812 3.04165C108.213 3.59374 108.505 4.1979 108.698 4.85936C108.885 5.51561 108.953 6.18749 108.911 6.86978C108.865 7.55207 108.703 8.20311 108.427 8.83332L108.385 8.92186L80.6614 66.901H110.109C110.922 66.9062 111.713 67.0208 112.495 67.2552C113.271 67.4896 113.995 67.8333 114.672 68.2812C115.349 68.7292 115.948 69.2656 116.463 69.8906C116.984 70.5104 117.401 71.1979 117.719 71.9479C118.031 72.6927 118.234 73.4687 118.323 74.276C118.411 75.0833 118.38 75.8854 118.234 76.6823C118.083 77.4792 117.823 78.2396 117.453 78.9583C117.083 79.6823 116.615 80.3333 116.047 80.9167L39.3437 160.099L39.2552 160.187C38.1354 161.286 36.7916 161.844 35.2239 161.854ZM32.1093 84.9114H65.4739C65.7291 84.9114 65.9791 84.9271 66.2291 84.9583C66.4843 84.9948 66.7291 85.0417 66.9739 85.1094C67.2187 85.1719 67.4583 85.25 67.6927 85.3489C67.927 85.4427 68.1562 85.5521 68.3749 85.6771C68.5937 85.8021 68.8072 85.9427 69.0052 86.0937C69.2083 86.2448 69.401 86.4115 69.5833 86.5885C69.7604 86.7656 69.9322 86.9531 70.0885 87.151C70.2447 87.349 70.3854 87.5573 70.5156 87.776C70.6458 87.9948 70.7604 88.2187 70.8593 88.4479C70.9635 88.6823 71.0468 88.9219 71.1145 89.1615C71.1874 89.4062 71.2395 89.651 71.276 89.901C71.3177 90.151 71.3385 90.4062 71.3437 90.6562C71.3489 90.9115 71.3385 91.1615 71.3125 91.4167C71.2812 91.6667 71.2395 91.9167 71.1822 92.1615C71.1197 92.4062 71.0468 92.6458 70.9583 92.8854C70.8645 93.1198 70.7604 93.349 70.6406 93.5729L70.6093 93.6198L36.0468 154.828L111.698 76.7135C112.01 76.3958 112.203 76.0156 112.286 75.5781C112.37 75.1354 112.323 74.7135 112.151 74.3021C111.974 73.8906 111.703 73.5625 111.328 73.3177C110.958 73.0729 110.552 72.9479 110.104 72.9479H80.3802C79.8906 72.9479 79.4114 72.8906 78.9375 72.7708C78.4635 72.651 78.0156 72.4739 77.5833 72.2448C77.1562 72.0104 76.7604 71.7292 76.401 71.401C76.0416 71.0677 75.7291 70.6979 75.4635 70.2917C75.1979 69.8802 74.9843 69.4479 74.8281 68.9844C74.6666 68.526 74.5677 68.0521 74.526 67.5625C74.4895 67.0781 74.5052 66.5937 74.5885 66.1146C74.6666 65.6302 74.8072 65.1667 75 64.7187L75.0416 64.6302L102.37 7.49478L32.1093 84.9114Z"
            fill="#74B8FF" />
    </g>
    <mask id="mask7_1_251" style="mask-type:luminance" maskUnits="userSpaceOnUse" x="62" y="119"
        width="57" height="44">
        <path d="M62.1927 119.365H118.458V162.208H62.1927V119.365Z" fill="white" />
    </mask>
    <g mask="url(#mask7_1_251)">
        <path
            d="M34.8958 162.177C33.5624 162.172 32.3697 161.76 31.3177 160.943C30.7552 160.526 30.2812 160.021 29.901 159.432C29.5208 158.839 29.2604 158.203 29.1093 157.516C28.9635 156.828 28.9427 156.141 29.0468 155.448C29.151 154.75 29.3749 154.099 29.7187 153.484L29.7447 153.438L64.8437 91.2865H31.3749C30.802 91.2865 30.2343 91.2031 29.6874 91.0365C29.1354 90.8698 28.6197 90.625 28.1354 90.3073C27.6562 89.9896 27.2343 89.6042 26.8645 89.1615C26.4999 88.7188 26.2031 88.2292 25.9791 87.6979C25.7552 87.1667 25.6093 86.6146 25.5468 86.0417C25.4895 85.4688 25.5104 84.901 25.6145 84.3333C25.7239 83.7656 25.9062 83.2292 26.1718 82.7135C26.4374 82.2031 26.7708 81.7396 27.1718 81.3281L98.4739 2.75001L98.5729 2.64063C99.0572 2.15626 99.6093 1.77084 100.229 1.47917C100.849 1.19272 101.5 1.01563 102.182 0.953132C102.865 0.885423 103.536 0.942716 104.198 1.11459C104.859 1.28647 105.474 1.56251 106.036 1.94792C106.604 2.33855 107.083 2.8073 107.484 3.35938C107.885 3.91667 108.177 4.52084 108.37 5.1823C108.557 5.83855 108.63 6.51042 108.583 7.19272C108.536 7.87501 108.375 8.52605 108.099 9.15626L108.057 9.2448L80.3333 67.224H109.781C110.594 67.224 111.391 67.3438 112.167 67.5781C112.943 67.8125 113.667 68.1563 114.344 68.6042C115.021 69.0521 115.62 69.5885 116.135 70.2135C116.656 70.8333 117.073 71.5208 117.391 72.2656C117.703 73.0156 117.906 73.7917 117.995 74.599C118.083 75.4063 118.052 76.2083 117.906 77.0052C117.755 77.8021 117.495 78.5625 117.125 79.2813C116.755 80.0052 116.286 80.6563 115.724 81.2396L39.0156 160.422L38.927 160.505C37.8072 161.604 36.4635 162.161 34.8958 162.177ZM31.7812 85.2344H65.1458C65.401 85.2344 65.651 85.25 65.9062 85.2813C66.1562 85.3177 66.401 85.3646 66.6458 85.4271C66.8906 85.4948 67.1302 85.5729 67.3645 85.6719C67.5989 85.7656 67.8281 85.875 68.0468 86C68.2656 86.125 68.4791 86.2656 68.677 86.4167C68.8802 86.5677 69.0729 86.7344 69.2552 86.9115C69.4322 87.0886 69.6041 87.2761 69.7604 87.474C69.9166 87.6719 70.0572 87.8802 70.1875 88.099C70.3177 88.3177 70.4322 88.5417 70.5312 88.7708C70.6354 89.0052 70.7187 89.2448 70.7864 89.4844C70.8593 89.7292 70.9114 89.974 70.9479 90.224C70.9895 90.474 71.0104 90.7292 71.0156 90.9792C71.0208 91.2344 71.0104 91.4844 70.9843 91.7344C70.9531 91.9896 70.9114 92.2396 70.8541 92.4844C70.7916 92.7292 70.7187 92.9688 70.6302 93.2083C70.5364 93.4427 70.4322 93.6719 70.3125 93.8958L70.2864 93.9427L35.7187 155.151L111.37 77.0365C111.682 76.7135 111.875 76.3385 111.958 75.901C112.042 75.4583 111.995 75.0365 111.823 74.625C111.646 74.2135 111.375 73.8854 111.005 73.6406C110.63 73.3958 110.224 73.2708 109.776 73.2708H80.052C79.5625 73.2708 79.0833 73.2135 78.6093 73.0938C78.1354 72.974 77.6875 72.7969 77.2552 72.5677C76.8281 72.3333 76.4322 72.0521 76.0729 71.7188C75.7187 71.3906 75.401 71.0208 75.1354 70.6146C74.8697 70.2031 74.6562 69.7708 74.5 69.3073C74.3385 68.849 74.2395 68.375 74.1979 67.8854C74.1614 67.401 74.177 66.9167 74.2604 66.4375C74.3385 65.9531 74.4791 65.4896 74.6718 65.0417L74.7135 64.9531L102.042 7.81772L31.7812 85.2344Z"
            fill="#74B8FF" />
    </g>
    <mask id="mask8_1_251" style="mask-type:luminance" maskUnits="userSpaceOnUse" x="55" y="127"
        width="64" height="36">
        <path d="M55.3593 127.016H118.786V162.047H55.3593V127.016Z" fill="white" />
    </mask>
    <g mask="url(#mask8_1_251)">
        <path
            d="M35.2239 161.854C33.8906 161.849 32.6979 161.437 31.6458 160.62C31.0833 160.203 30.6093 159.698 30.2291 159.109C29.8489 158.516 29.5885 157.88 29.4374 157.193C29.2916 156.505 29.2708 155.818 29.3749 155.125C29.4791 154.432 29.7031 153.776 30.0416 153.167L30.0729 153.115L65.1718 90.9635H31.7031C31.1302 90.9635 30.5624 90.8802 30.0104 90.7135C29.4635 90.5469 28.9427 90.3021 28.4635 89.9844C27.9843 89.6667 27.5624 89.2812 27.1927 88.8385C26.8281 88.3958 26.5312 87.9062 26.3072 87.375C26.0833 86.8437 25.9374 86.2917 25.8749 85.7187C25.8177 85.1458 25.8385 84.5781 25.9427 84.0104C26.052 83.4427 26.2343 82.9062 26.4999 82.3958C26.7656 81.8802 27.0989 81.4167 27.4999 81.0052L98.802 2.42707L98.901 2.3177C99.3854 1.83333 99.9375 1.44791 100.557 1.15624C101.177 0.869784 101.828 0.6927 102.51 0.6302C103.193 0.5677 103.865 0.619783 104.526 0.791658C105.187 0.963533 105.802 1.23957 106.365 1.6302C106.932 2.01562 107.411 2.48437 107.812 3.04166C108.213 3.59374 108.505 4.19791 108.698 4.85937C108.885 5.51562 108.953 6.18749 108.911 6.86978C108.865 7.55207 108.703 8.20312 108.427 8.83333L108.385 8.92187L80.6614 66.901H110.109C110.922 66.9062 111.713 67.0208 112.495 67.2552C113.271 67.4896 113.995 67.8333 114.672 68.2812C115.349 68.7292 115.948 69.2656 116.463 69.8906C116.984 70.5104 117.401 71.1979 117.719 71.9479C118.031 72.6927 118.234 73.4687 118.323 74.276C118.411 75.0833 118.38 75.8854 118.234 76.6823C118.083 77.4792 117.823 78.2396 117.453 78.9583C117.083 79.6823 116.615 80.3333 116.047 80.9167L39.3437 160.099L39.2552 160.187C38.1354 161.286 36.7916 161.844 35.2239 161.854ZM32.1093 84.9115H65.4739C65.7291 84.9115 65.9791 84.9271 66.2291 84.9583C66.4843 84.9948 66.7291 85.0417 66.9739 85.1094C67.2187 85.1719 67.4583 85.25 67.6927 85.349C67.927 85.4427 68.1562 85.5521 68.3749 85.6771C68.5937 85.8021 68.8072 85.9427 69.0052 86.0937C69.2083 86.2448 69.401 86.4115 69.5833 86.5885C69.7604 86.7656 69.9322 86.9531 70.0885 87.151C70.2447 87.349 70.3854 87.5573 70.5156 87.776C70.6458 87.9948 70.7604 88.2187 70.8593 88.4479C70.9635 88.6823 71.0468 88.9219 71.1145 89.1615C71.1874 89.4062 71.2395 89.651 71.276 89.901C71.3177 90.151 71.3385 90.4062 71.3437 90.6562C71.3489 90.9115 71.3385 91.1615 71.3125 91.4167C71.2812 91.6667 71.2395 91.9167 71.1822 92.1615C71.1197 92.4062 71.0468 92.6458 70.9583 92.8854C70.8645 93.1198 70.7604 93.349 70.6406 93.5729L70.6093 93.6198L36.0468 154.828L111.698 76.7135C112.01 76.3958 112.203 76.0156 112.286 75.5781C112.37 75.1354 112.323 74.7135 112.151 74.3021C111.974 73.8906 111.703 73.5625 111.328 73.3177C110.958 73.0729 110.552 72.9479 110.104 72.9479H80.3802C79.8906 72.9479 79.4114 72.8906 78.9375 72.7708C78.4635 72.651 78.0156 72.4739 77.5833 72.2448C77.1562 72.0104 76.7604 71.7292 76.401 71.401C76.0416 71.0677 75.7291 70.6979 75.4635 70.2917C75.1979 69.8802 74.9843 69.4479 74.8281 68.9844C74.6666 68.526 74.5677 68.0521 74.526 67.5625C74.4895 67.0781 74.5052 66.5937 74.5885 66.1146C74.6666 65.6302 74.8072 65.1667 75 64.7187L75.0416 64.6302L102.37 7.49478L32.1093 84.9115Z"
            fill="#74B8FF" />
    </g>
    <mask id="mask9_1_251" style="mask-type:luminance" maskUnits="userSpaceOnUse" x="77" y="0"
        width="30" height="163">
        <path d="M77.9531 0H106.297V162.047H77.9531V0Z" fill="white" />
    </mask>
    <g mask="url(#mask9_1_251)">
        <path
            d="M22.7291 161.854C21.401 161.849 20.2083 161.437 19.1562 160.62C18.5885 160.203 18.1197 159.698 17.7395 159.109C17.3593 158.516 17.0937 157.88 16.9479 157.193C16.802 156.505 16.7812 155.818 16.8854 155.125C16.9895 154.432 17.2135 153.776 17.552 153.161L17.5833 153.115L52.6822 90.9635H19.2135C18.6354 90.9635 18.0729 90.8802 17.5208 90.7135C16.9687 90.5469 16.4531 90.3021 15.9739 89.9844C15.4947 89.6667 15.0677 89.2812 14.7031 88.8385C14.3333 88.3958 14.0364 87.9062 13.8125 87.375C13.5885 86.8437 13.4479 86.2917 13.3854 85.7187C13.3229 85.1458 13.3489 84.5781 13.4531 84.0104C13.5572 83.4427 13.7447 82.9062 14.0104 82.3958C14.276 81.8802 14.6093 81.4167 15.0104 81.0052L86.3125 2.42707L86.4114 2.31769C86.8958 1.83332 87.4479 1.4479 88.0677 1.15624C88.6875 0.869779 89.3385 0.692695 90.0208 0.630195C90.6979 0.562487 91.3697 0.619779 92.0312 0.791653C92.6979 0.963528 93.3072 1.23957 93.875 1.63019C94.4375 2.01561 94.9218 2.48436 95.3229 3.04165C95.7239 3.59374 96.0156 4.1979 96.2031 4.85936C96.3958 5.51561 96.4635 6.18749 96.4166 6.86978C96.375 7.55207 96.2135 8.20311 95.9375 8.83332L95.8958 8.92186L68.1718 66.901H97.6197C98.4322 66.9062 99.2239 67.0208 100 67.2552C100.781 67.4896 101.505 67.8333 102.182 68.2812C102.859 68.7292 103.453 69.2656 103.974 69.8906C104.49 70.5104 104.911 71.1979 105.224 71.9479C105.542 72.6927 105.745 73.4687 105.833 74.276C105.922 75.0833 105.891 75.8854 105.74 76.6823C105.594 77.4792 105.333 78.2396 104.963 78.9583C104.588 79.6823 104.12 80.3333 103.557 80.9167L26.8541 160.099L26.7656 160.187C25.6458 161.286 24.302 161.844 22.7291 161.854ZM19.6145 84.9114H52.9843C53.2395 84.9114 53.4895 84.9271 53.7395 84.9583C53.9895 84.9948 54.2395 85.0417 54.4843 85.1094C54.7291 85.1719 54.9687 85.25 55.2031 85.3489C55.4375 85.4427 55.6614 85.5521 55.8854 85.6771C56.1041 85.8021 56.3125 85.9427 56.5156 86.0937C56.7187 86.2448 56.9114 86.4115 57.0885 86.5885C57.2708 86.7656 57.4375 86.9531 57.5937 87.151C57.75 87.349 57.8958 87.5573 58.026 87.776C58.1562 87.9948 58.2708 88.2187 58.3697 88.4479C58.4687 88.6823 58.5572 88.9219 58.625 89.1615C58.6979 89.4062 58.75 89.651 58.7864 89.901C58.8229 90.151 58.8489 90.4062 58.8541 90.6562C58.8593 90.9115 58.8489 91.1615 58.8177 91.4167C58.7916 91.6667 58.75 91.9167 58.6875 92.1615C58.6302 92.4062 58.5572 92.6458 58.4635 92.8854C58.375 93.1198 58.2708 93.349 58.151 93.5729L58.1197 93.6198L23.5572 154.828L99.2083 76.7135C99.5156 76.3958 99.7135 76.0156 99.7968 75.5781C99.8802 75.1354 99.8333 74.7135 99.6562 74.3021C99.4843 73.8906 99.2135 73.5625 98.8385 73.3177C98.4687 73.0729 98.0572 72.9479 97.6145 72.9479H67.8906C67.401 72.9479 66.9218 72.8906 66.4479 72.7708C65.9739 72.651 65.526 72.4739 65.0937 72.2448C64.6666 72.0104 64.2708 71.7292 63.9114 71.401C63.552 71.0677 63.2395 70.6979 62.9739 70.2917C62.7083 69.8802 62.4947 69.4479 62.3333 68.9844C62.177 68.526 62.0781 68.0521 62.0364 67.5625C61.9947 67.0781 62.0156 66.5937 62.0989 66.1146C62.177 65.6302 62.3125 65.1667 62.5104 64.7187L62.552 64.6302L89.8802 7.49478L19.6145 84.9114Z"
            fill="#594DE9" />
    </g>
    <mask id="mask10_1_251" style="mask-type:luminance" maskUnits="userSpaceOnUse" x="12" y="141"
        width="94" height="21">
        <path d="M12.8698 141.896H105.833V161.672H12.8698V141.896Z" fill="white" />
    </mask>
    <g mask="url(#mask10_1_251)">
        <path
            d="M22.6875 161.854C21.3541 161.849 20.1614 161.437 19.1093 160.62C18.5468 160.203 18.0729 159.698 17.6927 159.109C17.3125 158.516 17.0468 157.88 16.901 157.193C16.7552 156.505 16.7343 155.818 16.8385 155.125C16.9427 154.427 17.1666 153.776 17.5052 153.161L17.5364 153.115L52.6354 90.9635H19.1666C18.5937 90.9635 18.026 90.8802 17.4739 90.7135C16.9218 90.5469 16.4062 90.3021 15.927 89.9844C15.4479 89.6667 15.026 89.2812 14.6562 88.8385C14.2864 88.3958 13.9947 87.9062 13.7656 87.375C13.5416 86.8437 13.401 86.2917 13.3385 85.7187C13.276 85.1458 13.302 84.5781 13.4062 84.0104C13.5104 83.4427 13.6979 82.9062 13.9635 82.3958C14.2291 81.8802 14.5625 81.4167 14.9635 81.0052L86.2656 2.42707L86.3645 2.31769C86.8489 1.83332 87.401 1.4479 88.0208 1.15624C88.6406 0.869779 89.2916 0.692695 89.9739 0.630195C90.651 0.562487 91.3229 0.619779 91.9895 0.791653C92.651 0.963528 93.2604 1.23957 93.8281 1.63019C94.3906 2.01561 94.875 2.48436 95.276 3.04165C95.677 3.59374 95.9687 4.1979 96.1562 4.85936C96.3489 5.51561 96.4166 6.18749 96.3697 6.86978C96.3281 7.55207 96.1666 8.20311 95.8906 8.83332L95.8489 8.92186L68.125 66.901H97.5729C98.3854 66.9062 99.177 67.0208 99.9531 67.2552C100.734 67.4896 101.458 67.8333 102.135 68.2812C102.812 68.7292 103.406 69.2656 103.927 69.8906C104.448 70.5104 104.865 71.1979 105.177 71.9479C105.495 72.6927 105.698 73.4687 105.786 74.276C105.875 75.0833 105.844 75.8854 105.698 76.6823C105.547 77.4792 105.286 78.2396 104.917 78.9583C104.542 79.6823 104.078 80.3333 103.51 80.9167L26.8072 160.099L26.7187 160.187C25.5989 161.286 24.2552 161.839 22.6875 161.854ZM19.5729 84.9114H52.9375C53.1927 84.9114 53.4427 84.9271 53.6927 84.9583C53.9427 84.9948 54.1927 85.0417 54.4375 85.1042C54.6822 85.1719 54.9218 85.25 55.1562 85.3489C55.3906 85.4427 55.6145 85.5521 55.8385 85.6771C56.0572 85.8021 56.2656 85.9427 56.4687 86.0937C56.6718 86.2448 56.8645 86.4115 57.0416 86.5885C57.2239 86.7656 57.3906 86.9531 57.552 87.151C57.7083 87.349 57.8489 87.5573 57.9791 87.776C58.1093 87.9948 58.2239 88.2187 58.3229 88.4479C58.4218 88.6823 58.5104 88.9219 58.5781 89.1615C58.651 89.4062 58.7031 89.651 58.7395 89.901C58.776 90.151 58.802 90.4062 58.8072 90.6562C58.8125 90.9115 58.802 91.1615 58.7708 91.4167C58.7447 91.6667 58.7031 91.9167 58.6458 92.1615C58.5833 92.4062 58.5104 92.6458 58.4166 92.8854C58.3281 93.1198 58.2239 93.349 58.1041 93.5729L58.0729 93.6198L23.5104 154.828L99.1614 76.7135C99.4687 76.3958 99.6666 76.0156 99.75 75.5781C99.8333 75.1354 99.7864 74.7135 99.6093 74.3021C99.4375 73.8906 99.1666 73.5625 98.7916 73.3177C98.4218 73.0729 98.0104 72.9479 97.5677 72.9479H67.8437C67.3541 72.9479 66.875 72.8906 66.401 72.7708C65.927 72.651 65.4791 72.4739 65.0468 72.2448C64.6197 72.0104 64.2239 71.7292 63.8645 71.401C63.5052 71.0677 63.1927 70.6979 62.927 70.2917C62.6614 69.8802 62.4479 69.4479 62.2864 68.9844C62.1302 68.526 62.0312 68.0521 61.9895 67.5625C61.9479 67.0781 61.9687 66.5937 62.052 66.1146C62.1302 65.6302 62.2708 65.1667 62.4635 64.7187L62.5052 64.6302L89.8333 7.49478L19.5729 84.9114Z"
            fill="#594DE9" />
    </g>
    <mask id="mask11_1_251" style="mask-type:luminance" maskUnits="userSpaceOnUse" x="59" y="43"
        width="48" height="32">
        <path d="M59.0677 43.5573H106.297V74.8698H59.0677V43.5573Z" fill="white" />
    </mask>
    <g mask="url(#mask11_1_251)">
        <path
            d="M22.7291 161.854C21.401 161.849 20.2083 161.437 19.1562 160.62C18.5885 160.203 18.1197 159.698 17.7395 159.109C17.3593 158.516 17.0937 157.88 16.9479 157.193C16.802 156.505 16.7812 155.818 16.8854 155.125C16.9895 154.432 17.2135 153.776 17.552 153.161L17.5833 153.115L52.6822 90.9635H19.2135C18.6354 90.9635 18.0729 90.8802 17.5208 90.7135C16.9687 90.5469 16.4531 90.3021 15.9739 89.9844C15.4947 89.6667 15.0677 89.2812 14.7031 88.8385C14.3333 88.3958 14.0364 87.9062 13.8125 87.375C13.5885 86.8437 13.4479 86.2917 13.3854 85.7187C13.3229 85.1458 13.3489 84.5781 13.4531 84.0104C13.5572 83.4427 13.7447 82.9062 14.0104 82.3958C14.276 81.8802 14.6093 81.4167 15.0104 81.0052L86.3125 2.42707L86.4114 2.31769C86.8958 1.83332 87.4479 1.4479 88.0677 1.15624C88.6875 0.869779 89.3385 0.692695 90.0208 0.630195C90.6979 0.562487 91.3697 0.619779 92.0312 0.791653C92.6979 0.963528 93.3072 1.23957 93.875 1.63019C94.4375 2.01561 94.9218 2.48436 95.3229 3.04165C95.7239 3.59374 96.0156 4.1979 96.2031 4.85936C96.3958 5.51561 96.4635 6.18749 96.4166 6.86978C96.375 7.55207 96.2135 8.20311 95.9375 8.83332L95.8958 8.92186L68.1718 66.901H97.6197C98.4322 66.9062 99.2239 67.0208 100 67.2552C100.781 67.4896 101.505 67.8333 102.182 68.2812C102.859 68.7292 103.453 69.2656 103.974 69.8906C104.49 70.5104 104.911 71.1979 105.224 71.9479C105.542 72.6927 105.745 73.4687 105.833 74.276C105.922 75.0833 105.891 75.8854 105.74 76.6823C105.594 77.4792 105.333 78.2396 104.963 78.9583C104.588 79.6823 104.12 80.3333 103.557 80.9167L26.8541 160.099L26.7656 160.187C25.6458 161.286 24.302 161.844 22.7291 161.854ZM19.6145 84.9114H52.9843C53.2395 84.9114 53.4895 84.9271 53.7395 84.9583C53.9895 84.9948 54.2395 85.0417 54.4843 85.1094C54.7291 85.1719 54.9687 85.25 55.2031 85.3489C55.4375 85.4427 55.6614 85.5521 55.8854 85.6771C56.1041 85.8021 56.3125 85.9427 56.5156 86.0937C56.7187 86.2448 56.9114 86.4115 57.0885 86.5885C57.2708 86.7656 57.4375 86.9531 57.5937 87.151C57.75 87.349 57.8958 87.5573 58.026 87.776C58.1562 87.9948 58.2708 88.2187 58.3697 88.4479C58.4687 88.6823 58.5572 88.9219 58.625 89.1615C58.6979 89.4062 58.75 89.651 58.7864 89.901C58.8229 90.151 58.8489 90.4062 58.8541 90.6562C58.8593 90.9115 58.8489 91.1615 58.8177 91.4167C58.7916 91.6667 58.75 91.9167 58.6875 92.1615C58.6302 92.4062 58.5572 92.6458 58.4635 92.8854C58.375 93.1198 58.2708 93.349 58.151 93.5729L58.1197 93.6198L23.5572 154.828L99.2083 76.7135C99.5156 76.3958 99.7135 76.0156 99.7968 75.5781C99.8802 75.1354 99.8333 74.7135 99.6562 74.3021C99.4843 73.8906 99.2135 73.5625 98.8385 73.3177C98.4687 73.0729 98.0572 72.9479 97.6145 72.9479H67.8906C67.401 72.9479 66.9218 72.8906 66.4479 72.7708C65.9739 72.651 65.526 72.4739 65.0937 72.2448C64.6666 72.0104 64.2708 71.7292 63.9114 71.401C63.552 71.0677 63.2395 70.6979 62.9739 70.2917C62.7083 69.8802 62.4947 69.4479 62.3333 68.9844C62.177 68.526 62.0781 68.0521 62.0364 67.5625C61.9947 67.0781 62.0156 66.5937 62.0989 66.1146C62.177 65.6302 62.3125 65.1667 62.5104 64.7187L62.552 64.6302L89.8802 7.49478L19.6145 84.9114Z"
            fill="#594DE9" />
    </g>
    <mask id="mask12_1_251" style="mask-type:luminance" maskUnits="userSpaceOnUse" x="72" y="29"
        width="35" height="46">
        <path d="M72.6354 29.2083H106.297V74.7969H72.6354V29.2083Z" fill="white" />
    </mask>
    <g mask="url(#mask12_1_251)">
        <path
            d="M22.7292 161.854C21.4011 161.849 20.2083 161.437 19.1563 160.62C18.5886 160.203 18.1198 159.698 17.7396 159.109C17.3594 158.516 17.0938 157.88 16.9479 157.193C16.8021 156.505 16.7813 155.818 16.8854 155.125C16.9896 154.432 17.2136 153.776 17.5521 153.161L17.5833 153.115L52.6823 90.9635H19.2136C18.6354 90.9635 18.0729 90.8802 17.5208 90.7135C16.9688 90.5469 16.4531 90.3021 15.974 89.9844C15.4948 89.6667 15.0677 89.2812 14.7031 88.8385C14.3333 88.3958 14.0365 87.9062 13.8125 87.375C13.5886 86.8437 13.4479 86.2917 13.3854 85.7187C13.3229 85.1458 13.349 84.5781 13.4531 84.0104C13.5573 83.4427 13.7448 82.9062 14.0104 82.3958C14.2761 81.8802 14.6094 81.4167 15.0104 81.0052L86.3125 2.42707L86.4115 2.31769C86.8958 1.83332 87.4479 1.4479 88.0677 1.15624C88.6875 0.869779 89.3386 0.692695 90.0208 0.630195C90.6979 0.562487 91.3698 0.619779 92.0313 0.791653C92.6979 0.963528 93.3073 1.23957 93.875 1.63019C94.4375 2.01561 94.9219 2.48436 95.3229 3.04165C95.724 3.59374 96.0156 4.1979 96.2031 4.85936C96.3958 5.51561 96.4636 6.18749 96.4167 6.86978C96.375 7.55207 96.2136 8.20311 95.9375 8.83332L95.8958 8.92186L68.1719 66.901H97.6198C98.4323 66.9062 99.224 67.0208 100 67.2552C100.781 67.4896 101.505 67.8333 102.182 68.2812C102.859 68.7292 103.453 69.2656 103.974 69.8906C104.49 70.5104 104.911 71.1979 105.224 71.9479C105.542 72.6927 105.745 73.4687 105.833 74.276C105.922 75.0833 105.891 75.8854 105.74 76.6823C105.594 77.4792 105.333 78.2396 104.964 78.9583C104.589 79.6823 104.12 80.3333 103.557 80.9167L26.8542 160.099L26.7656 160.187C25.6458 161.286 24.3021 161.844 22.7292 161.854ZM19.6146 84.9114H52.9844C53.2396 84.9114 53.4896 84.9271 53.7396 84.9583C53.9896 84.9948 54.2396 85.0417 54.4844 85.1094C54.7292 85.1719 54.9688 85.25 55.2031 85.3489C55.4375 85.4427 55.6615 85.5521 55.8854 85.6771C56.1042 85.8021 56.3125 85.9427 56.5156 86.0937C56.7188 86.2448 56.9115 86.4115 57.0886 86.5885C57.2708 86.7656 57.4375 86.9531 57.5938 87.151C57.75 87.349 57.8958 87.5573 58.0261 87.776C58.1563 87.9948 58.2708 88.2187 58.3698 88.4479C58.4688 88.6823 58.5573 88.9219 58.625 89.1615C58.6979 89.4062 58.75 89.651 58.7865 89.901C58.8229 90.151 58.849 90.4062 58.8542 90.6562C58.8594 90.9115 58.849 91.1615 58.8177 91.4167C58.7917 91.6667 58.75 91.9167 58.6875 92.1615C58.6302 92.4062 58.5573 92.6458 58.4636 92.8854C58.375 93.1198 58.2708 93.349 58.1511 93.5729L58.1198 93.6198L23.5573 154.828L99.2083 76.7135C99.5156 76.3958 99.7136 76.0156 99.7969 75.5781C99.8802 75.1354 99.8333 74.7135 99.6563 74.3021C99.4844 73.8906 99.2136 73.5625 98.8386 73.3177C98.4688 73.0729 98.0573 72.9479 97.6146 72.9479H67.8906C67.4011 72.9479 66.9219 72.8906 66.4479 72.7708C65.974 72.651 65.5261 72.4739 65.0938 72.2448C64.6667 72.0104 64.2708 71.7292 63.9115 71.401C63.5521 71.0677 63.2396 70.6979 62.974 70.2917C62.7083 69.8802 62.4948 69.4479 62.3333 68.9844C62.1771 68.526 62.0781 68.0521 62.0365 67.5625C61.9948 67.0781 62.0156 66.5937 62.099 66.1146C62.1771 65.6302 62.3125 65.1667 62.5104 64.7187L62.5521 64.6302L89.8802 7.49478L19.6146 84.9114Z"
            fill="#594DE9" />
    </g>
    <mask id="mask13_1_251" style="mask-type:luminance" maskUnits="userSpaceOnUse" x="34" y="137"
        width="60" height="17">
        <path d="M34.5573 137.391H93.3333V153.87H34.5573V137.391Z" fill="white" />
    </mask>
    <g mask="url(#mask13_1_251)">
        <path
            d="M23.4531 161.068C22.125 161.063 20.9323 160.651 19.8802 159.833C19.3125 159.417 18.8437 158.911 18.4635 158.323C18.0833 157.729 17.8177 157.094 17.6719 156.406C17.526 155.719 17.5052 155.031 17.6094 154.339C17.7135 153.641 17.9323 152.99 18.276 152.375L18.3073 152.328L53.401 90.1771H19.9375C19.3594 90.1771 18.7969 90.0938 18.2448 89.9271C17.6927 89.7604 17.1771 89.5156 16.6979 89.1979C16.2187 88.8802 15.7917 88.4948 15.4271 88.0521C15.0573 87.6094 14.7604 87.1198 14.5364 86.5886C14.3125 86.0573 14.1719 85.5052 14.1094 84.9323C14.0469 84.3594 14.0729 83.7917 14.1771 83.224C14.2812 82.6563 14.4687 82.1198 14.7344 81.6042C15 81.0938 15.3333 80.6302 15.7344 80.2188L87.0365 1.64063L87.1354 1.53126C87.6198 1.04688 88.1719 0.661465 88.7917 0.369799C89.4115 0.0833399 90.0625 -0.0937431 90.7396 -0.156243C91.4219 -0.223951 92.0937 -0.166659 92.7552 0.00521521C93.4219 0.17709 94.0312 0.453133 94.599 0.838549C95.1615 1.22917 95.6458 1.69792 96.0469 2.25001C96.4479 2.8073 96.7396 3.41147 96.9271 4.07292C97.1146 4.72917 97.1875 5.40105 97.1406 6.08334C97.099 6.76563 96.9375 7.41667 96.6615 8.04688L96.6198 8.13542L68.8958 66.1146H98.3437C99.1562 66.1146 99.9479 66.2344 100.724 66.4688C101.5 66.7031 102.229 67.0469 102.906 67.4948C103.583 67.9427 104.177 68.4792 104.698 69.1042C105.214 69.724 105.63 70.4115 105.948 71.1563C106.266 71.9063 106.469 72.6823 106.557 73.4896C106.646 74.2969 106.615 75.099 106.464 75.8958C106.318 76.6927 106.057 77.4531 105.687 78.1719C105.312 78.8958 104.844 79.5469 104.281 80.1302L27.5729 159.313L27.4896 159.396C26.3698 160.495 25.026 161.052 23.4531 161.068ZM20.3385 84.125H53.7083C53.9635 84.125 54.2135 84.1406 54.4635 84.1719C54.7135 84.2083 54.9635 84.2552 55.2083 84.3177C55.4531 84.3854 55.6927 84.4635 55.9271 84.5625C56.1615 84.6563 56.3854 84.7656 56.6042 84.8906C56.8281 85.0156 57.0364 85.1563 57.2396 85.3073C57.4427 85.4583 57.6354 85.625 57.8125 85.8021C57.9948 85.9792 58.1615 86.1667 58.3177 86.3646C58.474 86.5625 58.6198 86.7708 58.75 86.9896C58.8802 87.2083 58.9948 87.4323 59.0937 87.6615C59.1927 87.8958 59.2812 88.1354 59.3489 88.375C59.4167 88.6198 59.474 88.8646 59.5104 89.1146C59.5469 89.3646 59.5677 89.6198 59.5781 89.8698C59.5833 90.125 59.5677 90.375 59.5417 90.625C59.5156 90.8802 59.4739 91.1302 59.4114 91.375C59.3542 91.6198 59.2812 91.8594 59.1875 92.099C59.0989 92.3333 58.9948 92.5625 58.875 92.7865L58.8437 92.8333L24.276 154.042L99.9323 75.9271C100.24 75.6042 100.437 75.2292 100.521 74.7917C100.599 74.349 100.557 73.9271 100.38 73.5156C100.208 73.1042 99.9323 72.776 99.5625 72.5313C99.1927 72.2865 98.7812 72.1615 98.3385 72.1615H68.6146C68.125 72.1615 67.6458 72.1042 67.1719 71.9844C66.6979 71.8646 66.2448 71.6875 65.8177 71.4583C65.3906 71.224 64.9948 70.9427 64.6354 70.6094C64.276 70.2813 63.9635 69.9115 63.6979 69.5052C63.4323 69.0938 63.2187 68.6615 63.0573 68.1979C62.901 67.7396 62.8021 67.2656 62.7604 66.776C62.7187 66.2917 62.7396 65.8073 62.8177 65.3281C62.901 64.8438 63.0365 64.3802 63.2344 63.9323L63.276 63.8438L90.6042 6.70834L20.3385 84.125Z"
            fill="#594DE9" />
    </g>
    <mask id="mask14_1_251" style="mask-type:luminance" maskUnits="userSpaceOnUse" x="57" y="98"
        width="50" height="65">
        <path d="M57.2239 98.3073H106.297V162.031H57.2239V98.3073Z" fill="white" />
    </mask>
    <g mask="url(#mask14_1_251)">
        <path
            d="M22.7291 161.854C21.401 161.849 20.2083 161.437 19.1562 160.62C18.5885 160.203 18.1197 159.698 17.7395 159.109C17.3593 158.516 17.0937 157.88 16.9479 157.193C16.802 156.505 16.7812 155.818 16.8854 155.125C16.9895 154.432 17.2135 153.776 17.552 153.161L17.5833 153.115L52.6822 90.9635H19.2135C18.6354 90.9635 18.0729 90.8802 17.5208 90.7135C16.9687 90.5469 16.4531 90.3021 15.9739 89.9844C15.4947 89.6667 15.0729 89.2812 14.7031 88.8385C14.3333 88.3958 14.0364 87.9062 13.8125 87.375C13.5885 86.8437 13.4479 86.2917 13.3854 85.7187C13.3229 85.1458 13.3489 84.5781 13.4531 84.0104C13.5572 83.4427 13.7447 82.9062 14.0104 82.3958C14.276 81.8802 14.6093 81.4167 15.0104 81.0052L86.3125 2.42707L86.4114 2.31769C86.8958 1.83332 87.4479 1.4479 88.0677 1.15624C88.6875 0.869779 89.3385 0.692695 90.0208 0.630195C90.6979 0.562487 91.3697 0.619779 92.0312 0.791653C92.6979 0.963528 93.3072 1.23957 93.875 1.63019C94.4375 2.01561 94.9218 2.48436 95.3229 3.04165C95.7239 3.59374 96.0156 4.1979 96.2031 4.85936C96.3958 5.51561 96.4635 6.18749 96.4166 6.86978C96.375 7.55207 96.2135 8.20311 95.9375 8.83332L95.8958 8.92186L68.1718 66.901H97.6197C98.4322 66.9062 99.2239 67.0208 100 67.2552C100.781 67.4896 101.505 67.8333 102.182 68.2812C102.859 68.7292 103.453 69.2656 103.974 69.8906C104.49 70.5104 104.911 71.1979 105.224 71.9479C105.542 72.6927 105.745 73.4687 105.833 74.276C105.922 75.0833 105.891 75.8854 105.74 76.6823C105.594 77.4792 105.333 78.2396 104.963 78.9583C104.588 79.6823 104.12 80.3333 103.557 80.9167L26.8541 160.099L26.7656 160.187C25.6458 161.286 24.302 161.844 22.7291 161.854ZM19.6145 84.9114H52.9843C53.2395 84.9114 53.4895 84.9271 53.7395 84.9583C53.9895 84.9948 54.2395 85.0417 54.4843 85.1094C54.7291 85.1719 54.9687 85.25 55.2031 85.3489C55.4375 85.4427 55.6614 85.5521 55.8854 85.6771C56.1041 85.8021 56.3125 85.9427 56.5156 86.0937C56.7187 86.2448 56.9114 86.4115 57.0885 86.5885C57.2708 86.7656 57.4375 86.9531 57.5937 87.151C57.75 87.349 57.8958 87.5573 58.026 87.776C58.1562 87.9948 58.2708 88.2187 58.3697 88.4479C58.4687 88.6823 58.5572 88.9219 58.625 89.1615C58.6979 89.4062 58.75 89.651 58.7864 89.901C58.8229 90.151 58.8489 90.4062 58.8541 90.6562C58.8593 90.9115 58.8489 91.1615 58.8177 91.4167C58.7916 91.6667 58.75 91.9167 58.6875 92.1615C58.6302 92.4062 58.5572 92.6458 58.4635 92.8854C58.375 93.1198 58.2708 93.349 58.151 93.5729L58.1197 93.6198L23.5572 154.828L99.2083 76.7135C99.5156 76.3958 99.7135 76.0156 99.7968 75.5781C99.8802 75.1354 99.8333 74.7135 99.6562 74.3021C99.4843 73.8906 99.2135 73.5625 98.8385 73.3177C98.4687 73.0729 98.0572 72.9479 97.6145 72.9479H67.8906C67.401 72.9479 66.9218 72.8906 66.4479 72.7708C65.9739 72.651 65.526 72.4739 65.0937 72.2448C64.6666 72.0104 64.2708 71.7292 63.9114 71.401C63.552 71.0677 63.2395 70.6979 62.9739 70.2917C62.7083 69.8802 62.4947 69.4479 62.3333 68.9844C62.177 68.526 62.0781 68.0521 62.0364 67.5625C61.9947 67.0781 62.0156 66.5937 62.0989 66.1146C62.177 65.6302 62.3125 65.1667 62.5104 64.7187L62.552 64.6302L89.8802 7.49478L19.6145 84.9114Z"
            fill="#594DE9" />
    </g>
    <mask id="mask15_1_251" style="mask-type:luminance" maskUnits="userSpaceOnUse" x="39" y="132"
        width="68" height="30">
        <path d="M39.151 132.859H106.297V161.974H39.151V132.859Z" fill="white" />
    </mask>
    <g mask="url(#mask15_1_251)">
        <path
            d="M22.7291 161.854C21.401 161.849 20.2083 161.437 19.1562 160.62C18.5885 160.203 18.1197 159.698 17.7395 159.109C17.3593 158.516 17.0937 157.88 16.9479 157.193C16.802 156.505 16.7812 155.818 16.8854 155.125C16.9895 154.432 17.2135 153.776 17.552 153.161L17.5833 153.115L52.6822 90.9635H19.2135C18.6354 90.9635 18.0729 90.8802 17.5208 90.7135C16.9687 90.5469 16.4531 90.3021 15.9739 89.9844C15.4947 89.6667 15.0677 89.2812 14.7031 88.8385C14.3333 88.3958 14.0364 87.9062 13.8125 87.375C13.5885 86.8437 13.4479 86.2917 13.3854 85.7187C13.3229 85.1458 13.3489 84.5781 13.4531 84.0104C13.5572 83.4427 13.7447 82.9062 14.0104 82.3958C14.276 81.8802 14.6093 81.4167 15.0104 81.0052L86.3125 2.42707L86.4114 2.31769C86.8958 1.83332 87.4479 1.4479 88.0677 1.15624C88.6875 0.869779 89.3385 0.692695 90.0208 0.630195C90.6979 0.562487 91.3697 0.619779 92.0312 0.791653C92.6979 0.963528 93.3072 1.23957 93.875 1.63019C94.4375 2.01561 94.9218 2.48436 95.3229 3.04165C95.7239 3.59374 96.0156 4.1979 96.2031 4.85936C96.3958 5.51561 96.4635 6.18749 96.4166 6.86978C96.375 7.55207 96.2135 8.20311 95.9375 8.83332L95.8958 8.92186L68.1718 66.901H97.6197C98.4322 66.9062 99.2239 67.0208 100 67.2552C100.781 67.4896 101.505 67.8333 102.182 68.2812C102.859 68.7292 103.453 69.2656 103.974 69.8906C104.49 70.5104 104.911 71.1979 105.224 71.9479C105.542 72.6927 105.745 73.4687 105.833 74.276C105.922 75.0833 105.891 75.8854 105.74 76.6823C105.594 77.4792 105.333 78.2396 104.963 78.9583C104.588 79.6823 104.12 80.3333 103.557 80.9167L26.8541 160.099L26.7656 160.187C25.6458 161.286 24.302 161.844 22.7291 161.854ZM19.6145 84.9114H52.9843C53.2395 84.9114 53.4895 84.9271 53.7395 84.9583C53.9895 84.9948 54.2395 85.0417 54.4843 85.1094C54.7291 85.1719 54.9687 85.25 55.2031 85.3489C55.4375 85.4427 55.6614 85.5521 55.8854 85.6771C56.1041 85.8021 56.3125 85.9427 56.5156 86.0937C56.7187 86.2448 56.9114 86.4115 57.0885 86.5885C57.2708 86.7656 57.4375 86.9531 57.5937 87.151C57.75 87.349 57.8958 87.5573 58.026 87.776C58.1562 87.9948 58.2708 88.2187 58.3697 88.4479C58.4687 88.6823 58.5572 88.9219 58.625 89.1615C58.6979 89.4062 58.75 89.651 58.7864 89.901C58.8229 90.151 58.8489 90.4062 58.8541 90.6562C58.8593 90.9115 58.8489 91.1615 58.8177 91.4167C58.7916 91.6667 58.75 91.9167 58.6875 92.1615C58.6302 92.4062 58.5572 92.6458 58.4635 92.8854C58.375 93.1198 58.2708 93.349 58.151 93.5729L58.1197 93.6198L23.5572 154.828L99.2083 76.7135C99.5156 76.3958 99.7135 76.0156 99.7968 75.5781C99.8802 75.1354 99.8333 74.7135 99.6562 74.3021C99.4843 73.8906 99.2135 73.5625 98.8385 73.3177C98.4687 73.0729 98.0572 72.9479 97.6145 72.9479H67.8906C67.401 72.9479 66.9218 72.8906 66.4479 72.7708C65.9739 72.651 65.526 72.4739 65.0937 72.2448C64.6666 72.0104 64.2708 71.7292 63.9114 71.401C63.552 71.0677 63.2395 70.6979 62.9739 70.2917C62.7083 69.8802 62.4947 69.4479 62.3333 68.9844C62.177 68.526 62.0781 68.0521 62.0364 67.5625C61.9947 67.0781 62.0156 66.5937 62.0989 66.1146C62.177 65.6302 62.3125 65.1667 62.5104 64.7187L62.552 64.6302L89.8802 7.49478L19.6145 84.9114Z"
            fill="#594DE9" />
    </g>
    <mask id="mask16_1_251" style="mask-type:luminance" maskUnits="userSpaceOnUse" x="49" y="119"
        width="57" height="44">
        <path d="M49.7031 119.365H105.833V162.208H49.7031V119.365Z" fill="white" />
    </mask>
    <g mask="url(#mask16_1_251)">
        <path
            d="M22.4062 162.177C21.0729 162.172 19.8802 161.76 18.8281 160.943C18.2656 160.526 17.7916 160.021 17.4114 159.432C17.0312 158.839 16.7656 158.203 16.6197 157.516C16.4739 156.828 16.4531 156.141 16.5572 155.448C16.6614 154.75 16.8854 154.099 17.2239 153.484L17.2552 153.438L52.3541 91.2865H18.8854C18.3125 91.2865 17.7447 91.2031 17.1927 91.0365C16.6406 90.8698 16.125 90.625 15.6458 90.3073C15.1666 89.9896 14.7447 89.6042 14.375 89.1615C14.0052 88.7188 13.7135 88.2292 13.4895 87.6979C13.2604 87.1667 13.1197 86.6146 13.0572 86.0417C12.9947 85.4688 13.0208 84.901 13.125 84.3333C13.2343 83.7656 13.4166 83.2292 13.6822 82.7135C13.9479 82.2031 14.2812 81.7396 14.6822 81.3281L85.9843 2.75001L86.0833 2.64063C86.5677 2.15626 87.1197 1.77084 87.7395 1.47917C88.3593 1.19272 89.0104 1.01563 89.6927 0.953132C90.3697 0.885423 91.0416 0.942716 91.7083 1.11459C92.3697 1.28647 92.9843 1.56251 93.5468 1.94792C94.1093 2.33855 94.5937 2.8073 94.9947 3.35938C95.3958 3.91667 95.6875 4.52084 95.875 5.1823C96.0677 5.83855 96.1354 6.51042 96.0937 7.19272C96.0468 7.87501 95.8854 8.52605 95.6093 9.15626L95.5677 9.2448L67.8437 67.224H97.2916C98.1041 67.224 98.8958 67.3438 99.6718 67.5781C100.453 67.8125 101.177 68.1563 101.854 68.6042C102.531 69.0521 103.125 69.5885 103.646 70.2135C104.167 70.8333 104.583 71.5208 104.896 72.2656C105.213 73.0156 105.417 73.7917 105.505 74.599C105.594 75.4063 105.562 76.2083 105.417 77.0052C105.266 77.8021 105.005 78.5625 104.635 79.2813C104.26 80.0052 103.797 80.6563 103.229 81.2396L26.526 160.422L26.4375 160.505C25.3177 161.604 23.9739 162.161 22.4062 162.177ZM19.2916 85.2344H52.6562C52.9114 85.2344 53.1614 85.25 53.4114 85.2813C53.6614 85.3177 53.9114 85.3646 54.1562 85.4271C54.401 85.4948 54.6406 85.5729 54.875 85.6719C55.1093 85.7656 55.3333 85.875 55.5572 86C55.776 86.125 55.9843 86.2656 56.1875 86.4167C56.3906 86.5677 56.5833 86.7344 56.7604 86.9115C56.9427 87.0886 57.1093 87.2761 57.2708 87.474C57.427 87.6719 57.5677 87.8802 57.6979 88.099C57.8281 88.3177 57.9427 88.5417 58.0416 88.7708C58.1406 89.0052 58.2291 89.2448 58.2968 89.4844C58.3697 89.7292 58.4218 89.974 58.4583 90.224C58.5 90.474 58.5208 90.7292 58.526 90.9792C58.5312 91.2344 58.5208 91.4844 58.4895 91.7344C58.4635 91.9896 58.4218 92.2396 58.3645 92.4844C58.302 92.7292 58.2291 92.9688 58.1354 93.2083C58.0468 93.4427 57.9427 93.6719 57.8229 93.8958L57.7916 93.9427L23.2291 155.151L98.8802 77.0365C99.1875 76.7135 99.3854 76.3385 99.4687 75.901C99.552 75.4583 99.5052 75.0365 99.3281 74.625C99.1562 74.2135 98.8854 73.8854 98.5104 73.6406C98.1406 73.3958 97.7291 73.2708 97.2864 73.2708H67.5625C67.0729 73.2708 66.5937 73.2135 66.1197 73.0938C65.6458 72.974 65.1979 72.7969 64.7656 72.5677C64.3385 72.3333 63.9427 72.0521 63.5833 71.7188C63.2239 71.3906 62.9114 71.0208 62.6458 70.6146C62.3802 70.2031 62.1666 69.7708 62.0052 69.3073C61.8489 68.849 61.75 68.375 61.7083 67.8854C61.6666 67.401 61.6875 66.9167 61.7708 66.4375C61.8489 65.9531 61.9895 65.4896 62.1822 65.0417L62.2239 64.9531L89.552 7.81772L19.2916 85.2344Z"
            fill="#594DE9" />
    </g>
    <mask id="mask17_1_251" style="mask-type:luminance" maskUnits="userSpaceOnUse" x="42" y="127"
        width="65" height="36">
        <path d="M42.8698 127.016H106.297V162.047H42.8698V127.016Z" fill="white" />
    </mask>
    <g mask="url(#mask17_1_251)">
        <path
            d="M22.7291 161.854C21.401 161.849 20.2083 161.437 19.1562 160.62C18.5885 160.203 18.1197 159.698 17.7395 159.109C17.3593 158.516 17.0937 157.88 16.9479 157.193C16.802 156.505 16.7812 155.818 16.8854 155.125C16.9895 154.432 17.2135 153.776 17.552 153.167L17.5833 153.115L52.6822 90.9635H19.2135C18.6354 90.9635 18.0729 90.8802 17.5208 90.7135C16.9687 90.5469 16.4531 90.3021 15.9739 89.9844C15.4947 89.6667 15.0729 89.2812 14.7031 88.8385C14.3333 88.3958 14.0364 87.9062 13.8125 87.375C13.5885 86.8437 13.4479 86.2917 13.3854 85.7187C13.3229 85.1458 13.3489 84.5781 13.4531 84.0104C13.5572 83.4427 13.7447 82.9062 14.0104 82.3958C14.276 81.8802 14.6093 81.4167 15.0104 81.0052L86.3125 2.42707L86.4114 2.3177C86.8958 1.83333 87.4479 1.44791 88.0677 1.15624C88.6875 0.869784 89.3385 0.6927 90.0208 0.6302C90.6979 0.5677 91.3697 0.619783 92.0312 0.791658C92.6979 0.963533 93.3072 1.23957 93.875 1.6302C94.4375 2.01562 94.9218 2.48437 95.3229 3.04166C95.7239 3.59374 96.0156 4.19791 96.2031 4.85937C96.3958 5.51562 96.4635 6.18749 96.4166 6.86978C96.375 7.55207 96.2135 8.20312 95.9375 8.83333L95.8958 8.92187L68.1718 66.901H97.6197C98.4322 66.9062 99.2239 67.0208 100 67.2552C100.781 67.4896 101.505 67.8333 102.182 68.2812C102.859 68.7292 103.453 69.2656 103.974 69.8906C104.49 70.5104 104.911 71.1979 105.224 71.9479C105.542 72.6927 105.745 73.4687 105.833 74.276C105.922 75.0833 105.891 75.8854 105.74 76.6823C105.594 77.4792 105.333 78.2396 104.963 78.9583C104.588 79.6823 104.12 80.3333 103.557 80.9167L26.8541 160.099L26.7656 160.187C25.6458 161.286 24.302 161.844 22.7291 161.854ZM19.6145 84.9115H52.9843C53.2395 84.9115 53.4895 84.9271 53.7395 84.9583C53.9895 84.9948 54.2395 85.0417 54.4843 85.1094C54.7291 85.1719 54.9687 85.25 55.2031 85.349C55.4375 85.4427 55.6614 85.5521 55.8854 85.6771C56.1041 85.8021 56.3125 85.9427 56.5156 86.0937C56.7187 86.2448 56.9114 86.4115 57.0885 86.5885C57.2708 86.7656 57.4375 86.9531 57.5937 87.151C57.75 87.349 57.8958 87.5573 58.026 87.776C58.1562 87.9948 58.2708 88.2187 58.3697 88.4479C58.4687 88.6823 58.5572 88.9219 58.625 89.1615C58.6979 89.4062 58.75 89.651 58.7864 89.901C58.8229 90.151 58.8489 90.4062 58.8541 90.6562C58.8593 90.9115 58.8489 91.1615 58.8177 91.4167C58.7916 91.6667 58.75 91.9167 58.6875 92.1615C58.6302 92.4062 58.5572 92.6458 58.4635 92.8854C58.375 93.1198 58.2708 93.349 58.151 93.5729L58.1197 93.6198L23.5572 154.828L99.2083 76.7135C99.5156 76.3958 99.7135 76.0156 99.7968 75.5781C99.8802 75.1354 99.8333 74.7135 99.6562 74.3021C99.4843 73.8906 99.2135 73.5625 98.8385 73.3177C98.4687 73.0729 98.0572 72.9479 97.6145 72.9479H67.8906C67.401 72.9479 66.9218 72.8906 66.4479 72.7708C65.9739 72.651 65.526 72.4739 65.0937 72.2448C64.6666 72.0104 64.2708 71.7292 63.9114 71.401C63.552 71.0677 63.2395 70.6979 62.9739 70.2917C62.7083 69.8802 62.4947 69.4479 62.3333 68.9844C62.177 68.526 62.0781 68.0521 62.0364 67.5625C61.9947 67.0781 62.0156 66.5937 62.0989 66.1146C62.177 65.6302 62.3125 65.1667 62.5104 64.7187L62.552 64.6302L89.8802 7.49478L19.6145 84.9115Z"
            fill="#594DE9" />
    </g>
    <mask id="mask18_1_251" style="mask-type:luminance" maskUnits="userSpaceOnUse" x="0" y="0"
        width="94" height="163">
        <path d="M0 0.317719H93.3854V162.339H0V0.317719Z" fill="white" />
    </mask>
    <g mask="url(#mask18_1_251)">
        <path
            d="M9.81769 162.177C8.48435 162.172 7.29165 161.76 6.23956 160.943C5.67706 160.526 5.2031 160.021 4.8229 159.432C4.44269 158.839 4.18227 158.203 4.03644 157.516C3.8854 156.828 3.86456 156.141 3.96873 155.448C4.0729 154.75 4.29685 154.099 4.6406 153.484L4.66665 153.438L39.7656 91.2865H6.30206C5.72394 91.2865 5.16144 91.2031 4.60935 91.0365C4.05727 90.8698 3.54165 90.625 3.06248 90.3073C2.57811 89.9896 2.15623 89.6042 1.78644 89.1615C1.42185 88.7188 1.12498 88.2292 0.901021 87.6979C0.677063 87.1667 0.53123 86.6146 0.473938 86.0417C0.411438 85.4688 0.432271 84.901 0.536438 84.3333C0.645813 83.7656 0.833314 83.2292 1.09373 82.7135C1.35936 82.2031 1.69269 81.7396 2.09373 81.3281L73.3958 2.75001L73.5 2.64063C73.9844 2.15626 74.5364 1.77084 75.151 1.47917C75.7708 1.19272 76.4219 1.01563 77.1041 0.953132C77.7864 0.885423 78.4583 0.942716 79.1198 1.11459C79.7812 1.28647 80.3958 1.56251 80.9583 1.94792C81.526 2.33855 82.0052 2.8073 82.4062 3.35938C82.8073 3.91667 83.1041 4.52084 83.2916 5.1823C83.4791 5.83855 83.5521 6.51042 83.5052 7.19272C83.4583 7.87501 83.2969 8.52605 83.026 9.15626L82.9844 9.2448L55.2604 67.224H84.7083C85.5156 67.224 86.3125 67.3438 87.0885 67.5781C87.8646 67.8125 88.5937 68.1563 89.2656 68.6042C89.9427 69.0521 90.5416 69.5885 91.0573 70.2135C91.5781 70.8333 91.9948 71.5208 92.3125 72.2656C92.6302 73.0156 92.8281 73.7917 92.9166 74.599C93.0052 75.4063 92.9739 76.2083 92.8281 77.0052C92.6771 77.8021 92.4219 78.5625 92.0469 79.2813C91.6771 80.0052 91.2083 80.6563 90.6458 81.2396L13.9375 160.422L13.8489 160.505C12.7291 161.604 11.3854 162.161 9.81769 162.177ZM6.7031 85.2344H40.0729C40.3229 85.2344 40.5781 85.25 40.8281 85.2813C41.0781 85.3177 41.3229 85.3646 41.5677 85.4271C41.8125 85.4948 42.0521 85.5729 42.2864 85.6719C42.5208 85.7656 42.75 85.875 42.9687 86C43.1875 86.125 43.401 86.2656 43.6041 86.4167C43.8021 86.5677 43.9948 86.7344 44.1771 86.9115C44.3594 87.0886 44.526 87.2761 44.6823 87.474C44.8385 87.6719 44.9791 87.8802 45.1094 88.099C45.2396 88.3177 45.3541 88.5417 45.4583 88.7708C45.5573 89.0052 45.6406 89.2448 45.7135 89.4844C45.7812 89.7292 45.8333 89.974 45.875 90.224C45.9114 90.474 45.9323 90.7292 45.9375 90.9792C45.9427 91.2344 45.9323 91.4844 45.9062 91.7344C45.8802 91.9896 45.8333 92.2396 45.776 92.4844C45.7187 92.7292 45.6406 92.9688 45.5521 93.2083C45.4583 93.4427 45.3541 93.6719 45.2344 93.8958L45.2083 93.9427L10.6406 155.151L86.2916 77.0365C86.6041 76.7135 86.8021 76.3385 86.8802 75.901C86.9635 75.4583 86.9166 75.0365 86.7448 74.625C86.5677 74.2135 86.2969 73.8854 85.9271 73.6406C85.5521 73.3958 85.1458 73.2708 84.6979 73.2708H54.9739C54.4844 73.2708 54.0052 73.2135 53.5312 73.0938C53.0625 72.974 52.6094 72.7969 52.1823 72.5677C51.75 72.3333 51.3594 72.0521 51 71.7188C50.6406 71.3906 50.3281 71.0208 50.0573 70.6146C49.7916 70.2031 49.5781 69.7708 49.4219 69.3073C49.2604 68.849 49.1614 68.375 49.125 67.8854C49.0833 67.401 49.1041 66.9167 49.1823 66.4375C49.2604 65.9531 49.401 65.4896 49.5989 65.0417L49.6406 64.9531L76.9687 7.81772L6.7031 85.2344Z"
            fill="#FFB902" />
    </g>
</svg>